<svg width="502" height="120" viewBox="0 0 502 120" fill="none" xmlns="http://www.w3.org/2000/svg">
<path fill-rule="evenodd" clip-rule="evenodd" d="M60 120C93.1371 120 120 93.1371 120 60C120 26.8629 93.1371 0 60 0C26.8629 0 0 26.8629 0 60C0 93.1371 26.8629 120 60 120ZM59.9999 105.943C85.3734 105.943 105.943 85.3736 105.943 60.0001C105.943 34.6266 85.3734 14.0572 59.9999 14.0572C34.6263 14.0572 14.057 34.6266 14.057 60.0001C14.057 85.3736 34.6263 105.943 59.9999 105.943Z" fill="#6D57F5"/>
<path d="M89.3357 71.0239C89.4995 64.4151 89.7288 50.7534 89.3357 48.9758C88.9845 47.3881 50.1846 31.045 24.6274 20.5085C21.573 19.2493 20.051 28.3715 17.4632 27.3133L16.1199 40.0883L67.2235 60.769L16.1199 82.817L17.4632 96.7162L26.4184 98.4893L89.3357 71.0239Z" fill="#6D57F5"/>
<path d="M160.909 84H143V37.4545H160.727C165.515 37.4545 169.652 38.3864 173.136 40.25C176.636 42.0985 179.333 44.7651 181.227 48.25C183.136 51.7197 184.091 55.8788 184.091 60.7273C184.091 65.5758 183.144 69.7424 181.25 73.2273C179.356 76.697 176.674 79.3636 173.205 81.2273C169.735 83.0758 165.636 84 160.909 84ZM155.636 73.2727H160.455C162.758 73.2727 164.72 72.9015 166.341 72.1591C167.977 71.4167 169.22 70.1364 170.068 68.3182C170.932 66.5 171.364 63.9697 171.364 60.7273C171.364 57.4848 170.924 54.9545 170.045 53.1364C169.182 51.3182 167.909 50.0379 166.227 49.2955C164.561 48.553 162.515 48.1818 160.091 48.1818H155.636V73.2727ZM189.479 84V49.0909H201.661V55.7273H202.025C202.661 53.2727 203.669 51.4773 205.048 50.3409C206.441 49.2045 208.07 48.6364 209.934 48.6364C210.479 48.6364 211.017 48.6818 211.548 48.7727C212.093 48.8485 212.616 48.9621 213.116 49.1136V59.8182C212.494 59.6061 211.729 59.447 210.82 59.3409C209.911 59.2348 209.131 59.1818 208.479 59.1818C207.252 59.1818 206.146 59.4621 205.161 60.0227C204.191 60.5682 203.426 61.3409 202.866 62.3409C202.305 63.3258 202.025 64.4848 202.025 65.8182V84H189.479ZM216.589 84V49.0909H229.135V84H216.589ZM222.862 45.4545C221.165 45.4545 219.711 44.8939 218.498 43.7727C217.286 42.6515 216.68 41.303 216.68 39.7273C216.68 38.1515 217.286 36.803 218.498 35.6818C219.711 34.5606 221.165 34 222.862 34C224.574 34 226.029 34.5606 227.226 35.6818C228.438 36.803 229.044 38.1515 229.044 39.7273C229.044 41.303 228.438 42.6515 227.226 43.7727C226.029 44.8939 224.574 45.4545 222.862 45.4545ZM270.069 49.0909L258.341 84H243.796L232.069 49.0909H245.25L250.887 72.1818H251.25L256.887 49.0909H270.069ZM288.662 84.6364C284.934 84.6364 281.722 83.9242 279.025 82.5C276.343 81.0606 274.275 79 272.821 76.3182C271.381 73.6212 270.662 70.3939 270.662 66.6364C270.662 63.0303 271.389 59.8788 272.843 57.1818C274.298 54.4848 276.351 52.3864 279.003 50.8864C281.654 49.3864 284.783 48.6364 288.389 48.6364C291.025 48.6364 293.412 49.0455 295.548 49.8636C297.684 50.6818 299.51 51.8712 301.025 53.4318C302.54 54.9773 303.707 56.8561 304.525 59.0682C305.343 61.2803 305.753 63.7727 305.753 66.5455V69.4545H274.571V62.5455H294.207C294.192 61.5455 293.934 60.6667 293.434 59.9091C292.949 59.1364 292.29 58.5379 291.457 58.1136C290.639 57.6742 289.707 57.4545 288.662 57.4545C287.646 57.4545 286.715 57.6742 285.866 58.1136C285.018 58.5379 284.336 59.1288 283.821 59.8864C283.321 60.6439 283.056 61.5303 283.025 62.5455V70C283.025 71.1212 283.26 72.1212 283.73 73C284.199 73.8788 284.874 74.5682 285.753 75.0682C286.631 75.5682 287.692 75.8182 288.934 75.8182C289.798 75.8182 290.586 75.697 291.298 75.4545C292.025 75.2121 292.646 74.8636 293.162 74.4091C293.677 73.9394 294.056 73.3788 294.298 72.7273H305.753C305.359 75.1515 304.427 77.2576 302.957 79.0455C301.487 80.8182 299.54 82.197 297.116 83.1818C294.707 84.1515 291.889 84.6364 288.662 84.6364ZM319.959 84.5455C317.732 84.5455 315.762 84.1818 314.05 83.4545C312.353 82.7121 311.02 81.5909 310.05 80.0909C309.08 78.5909 308.595 76.6818 308.595 74.3636C308.595 72.4545 308.921 70.8258 309.573 69.4773C310.224 68.1136 311.133 67 312.3 66.1364C313.467 65.2727 314.823 64.6136 316.368 64.1591C317.929 63.7045 319.611 63.4091 321.414 63.2727C323.368 63.1212 324.936 62.9394 326.118 62.7273C327.315 62.5 328.179 62.1894 328.709 61.7955C329.239 61.3864 329.505 60.8485 329.505 60.1818V60.0909C329.505 59.1818 329.156 58.4848 328.459 58C327.762 57.5152 326.868 57.2727 325.777 57.2727C324.58 57.2727 323.603 57.5379 322.845 58.0682C322.103 58.5833 321.656 59.3788 321.505 60.4545H309.959C310.111 58.3333 310.785 56.3788 311.982 54.5909C313.194 52.7879 314.959 51.3485 317.277 50.2727C319.595 49.1818 322.489 48.6364 325.959 48.6364C328.459 48.6364 330.702 48.9318 332.686 49.5227C334.671 50.0985 336.361 50.9091 337.755 51.9545C339.148 52.9848 340.209 54.197 340.936 55.5909C341.679 56.9697 342.05 58.4697 342.05 60.0909V84H330.323V79.0909H330.05C329.353 80.3939 328.505 81.447 327.505 82.25C326.52 83.053 325.391 83.6364 324.118 84C322.861 84.3636 321.474 84.5455 319.959 84.5455ZM324.05 76.6364C325.005 76.6364 325.898 76.4394 326.732 76.0455C327.58 75.6515 328.27 75.0833 328.8 74.3409C329.33 73.5985 329.595 72.697 329.595 71.6364V68.7273C329.262 68.8636 328.906 68.9924 328.527 69.1136C328.164 69.2348 327.77 69.3485 327.345 69.4545C326.936 69.5606 326.497 69.6591 326.027 69.75C325.573 69.8409 325.095 69.9242 324.595 70C323.626 70.1515 322.83 70.4015 322.209 70.75C321.603 71.0833 321.148 71.5 320.845 72C320.558 72.4848 320.414 73.0303 320.414 73.6364C320.414 74.6061 320.755 75.3485 321.436 75.8636C322.118 76.3788 322.989 76.6364 324.05 76.6364ZM359.95 64.3636V84H347.404V37.4545H359.495V55.7273H359.859C360.647 53.5 361.957 51.7652 363.791 50.5227C365.624 49.2652 367.829 48.6364 370.404 48.6364C372.874 48.6364 375.018 49.197 376.836 50.3182C378.669 51.4394 380.086 52.9848 381.086 54.9545C382.101 56.9242 382.601 59.1818 382.586 61.7273V84H370.041V64.3636C370.056 62.6364 369.624 61.2803 368.745 60.2955C367.882 59.3106 366.647 58.8182 365.041 58.8182C364.026 58.8182 363.132 59.0455 362.359 59.5C361.601 59.9394 361.01 60.5758 360.586 61.4091C360.177 62.2273 359.965 63.2121 359.95 64.3636ZM404.867 84.6364C401.139 84.6364 397.927 83.9242 395.23 82.5C392.548 81.0606 390.48 79 389.026 76.3182C387.586 73.6212 386.867 70.3939 386.867 66.6364C386.867 63.0303 387.594 59.8788 389.048 57.1818C390.503 54.4848 392.556 52.3864 395.208 50.8864C397.859 49.3864 400.988 48.6364 404.594 48.6364C407.23 48.6364 409.617 49.0455 411.753 49.8636C413.889 50.6818 415.715 51.8712 417.23 53.4318C418.745 54.9773 419.912 56.8561 420.73 59.0682C421.548 61.2803 421.958 63.7727 421.958 66.5455V69.4545H390.776V62.5455H410.412C410.397 61.5455 410.139 60.6667 409.639 59.9091C409.154 59.1364 408.495 58.5379 407.662 58.1136C406.844 57.6742 405.912 57.4545 404.867 57.4545C403.851 57.4545 402.92 57.6742 402.071 58.1136C401.223 58.5379 400.541 59.1288 400.026 59.8864C399.526 60.6439 399.261 61.5303 399.23 62.5455V70C399.23 71.1212 399.465 72.1212 399.935 73C400.404 73.8788 401.079 74.5682 401.958 75.0682C402.836 75.5682 403.897 75.8182 405.139 75.8182C406.003 75.8182 406.791 75.697 407.503 75.4545C408.23 75.2121 408.851 74.8636 409.367 74.4091C409.882 73.9394 410.261 73.3788 410.503 72.7273H421.958C421.564 75.1515 420.632 77.2576 419.162 79.0455C417.692 80.8182 415.745 82.197 413.321 83.1818C410.912 84.1515 408.094 84.6364 404.867 84.6364ZM436.164 84.5455C433.937 84.5455 431.967 84.1818 430.255 83.4545C428.558 82.7121 427.225 81.5909 426.255 80.0909C425.285 78.5909 424.8 76.6818 424.8 74.3636C424.8 72.4545 425.126 70.8258 425.778 69.4773C426.429 68.1136 427.338 67 428.505 66.1364C429.672 65.2727 431.028 64.6136 432.573 64.1591C434.134 63.7045 435.816 63.4091 437.619 63.2727C439.573 63.1212 441.141 62.9394 442.323 62.7273C443.52 62.5 444.384 62.1894 444.914 61.7955C445.444 61.3864 445.71 60.8485 445.71 60.1818V60.0909C445.71 59.1818 445.361 58.4848 444.664 58C443.967 57.5152 443.073 57.2727 441.982 57.2727C440.785 57.2727 439.808 57.5379 439.05 58.0682C438.308 58.5833 437.861 59.3788 437.71 60.4545H426.164C426.316 58.3333 426.99 56.3788 428.187 54.5909C429.399 52.7879 431.164 51.3485 433.482 50.2727C435.8 49.1818 438.694 48.6364 442.164 48.6364C444.664 48.6364 446.907 48.9318 448.891 49.5227C450.876 50.0985 452.566 50.9091 453.96 51.9545C455.353 52.9848 456.414 54.197 457.141 55.5909C457.884 56.9697 458.255 58.4697 458.255 60.0909V84H446.528V79.0909H446.255C445.558 80.3939 444.71 81.447 443.71 82.25C442.725 83.053 441.596 83.6364 440.323 84C439.066 84.3636 437.679 84.5455 436.164 84.5455ZM440.255 76.6364C441.21 76.6364 442.103 76.4394 442.937 76.0455C443.785 75.6515 444.475 75.0833 445.005 74.3409C445.535 73.5985 445.8 72.697 445.8 71.6364V68.7273C445.467 68.8636 445.111 68.9924 444.732 69.1136C444.369 69.2348 443.975 69.3485 443.55 69.4545C443.141 69.5606 442.702 69.6591 442.232 69.75C441.778 69.8409 441.3 69.9242 440.8 70C439.831 70.1515 439.035 70.4015 438.414 70.75C437.808 71.0833 437.353 71.5 437.05 72C436.763 72.4848 436.619 73.0303 436.619 73.6364C436.619 74.6061 436.96 75.3485 437.641 75.8636C438.323 76.3788 439.194 76.6364 440.255 76.6364ZM476.246 84.4545C473.761 84.4545 471.473 83.803 469.382 82.5C467.306 81.197 465.64 79.2197 464.382 76.5682C463.14 73.9167 462.518 70.5758 462.518 66.5455C462.518 62.3333 463.17 58.9091 464.473 56.2727C465.791 53.6364 467.488 51.7045 469.564 50.4773C471.655 49.25 473.852 48.6364 476.155 48.6364C477.882 48.6364 479.397 48.9394 480.7 49.5455C482.003 50.1364 483.094 50.9318 483.973 51.9318C484.852 52.9167 485.518 54 485.973 55.1818H486.155V37.4545H498.7V84H486.246V78.2727H485.973C485.488 79.4545 484.791 80.5152 483.882 81.4545C482.988 82.3788 481.897 83.1136 480.609 83.6591C479.337 84.1894 477.882 84.4545 476.246 84.4545ZM480.882 74.8182C482.034 74.8182 483.018 74.4848 483.837 73.8182C484.67 73.1364 485.306 72.1818 485.746 70.9545C486.2 69.7121 486.427 68.2424 486.427 66.5455C486.427 64.8182 486.2 63.3409 485.746 62.1136C485.306 60.8712 484.67 59.9242 483.837 59.2727C483.018 58.6061 482.034 58.2727 480.882 58.2727C479.731 58.2727 478.746 58.6061 477.927 59.2727C477.124 59.9242 476.503 60.8712 476.064 62.1136C475.64 63.3409 475.427 64.8182 475.427 66.5455C475.427 68.2727 475.64 69.7576 476.064 71C476.503 72.2273 477.124 73.1742 477.927 73.8409C478.746 74.4924 479.731 74.8182 480.882 74.8182Z" fill="#6750F4"/>
</svg>
